  0
SECTION
  2
HEADER
  9
$ACADVER
  1
AC1009
  9
$INSBASE
 10
0.0
 20
0.0
 30
0.0
  9
$EXTMIN
 10
-883.9973674646000745
 20
-1335.8751998201230435
 30
0.0
  9
$EXTMAX
 10
1669.9973674646000745
 20
-486.6422402174079025
 30
0.0
  9
$LIMMIN
 10
0.0
 20
0.0
  9
$LIMMAX
 10
420.0
 20
297.0
  9
$ORTHOMODE
 70
     1
  9
$REGENMODE
 70
     1
  9
$FILLMODE
 70
     1
  9
$QTEXTMODE
 70
     0
  9
$MIRRTEXT
 70
     1
  9
$DRAGMODE
 70
     2
  9
$LTSCALE
 40
1.0
  9
$OSMODE
 70
  4095
  9
$ATTMODE
 70
     1
  9
$TEXTSIZE
 40
3.5
  9
$TRACEWID
 40
1.0
  9
$TEXTSTYLE
  7
STANDARD
  9
$CLAYER
  8
0
  9
$CELTYPE
  6
BYLAYER
  9
$CECOLOR
 62
     3
  9
$DIMSCALE
 40
15.0
  9
$DIMASZ
 40
3.302
  9
$DIMEXO
 40
0.0
  9
$DIMDLI
 40
3.75
  9
$DIMRND
 40
0.0
  9
$DIMDLE
 40
0.0
  9
$DIMEXE
 40
1.0
  9
$DIMTP
 40
0.0
  9
$DIMTM
 40
0.0
  9
$DIMTXT
 40
3.5
  9
$DIMCEN
 40
2.5
  9
$DIMTSZ
 40
0.0
  9
$DIMTOL
 70
     0
  9
$DIMLIM
 70
     0
  9
$DIMTIH
 70
     1
  9
$DIMTOH
 70
     1
  9
$DIMSE1
 70
     0
  9
$DIMSE2
 70
     0
  9
$DIMTAD
 70
     1
  9
$DIMZIN
 70
     1
  9
$DIMBLK
  1

  9
$DIMASO
 70
     1
  9
$DIMSHO
 70
     1
  9
$DIMPOST
  1

  9
$DIMAPOST
  1

  9
$DIMALT
 70
     0
  9
$DIMALTD
 70
     3
  9
$DIMALTF
 40
0.0393700787
  9
$DIMLFAC
 40
1.0
  9
$DIMTOFL
 70
     1
  9
$DIMTVP
 40
0.0
  9
$DIMTIX
 70
     0
  9
$DIMSOXD
 70
     0
  9
$DIMSAH
 70
     0
  9
$DIMBLK1
  1

  9
$DIMBLK2
  1

  9
$DIMSTYLE
  2
ISO-25
  9
$DIMCLRD
 70
     0
  9
$DIMCLRE
 70
     0
  9
$DIMCLRT
 70
     0
  9
$DIMTFAC
 40
1.0
  9
$DIMGAP
 40
1.524
  9
$LUNITS
 70
     2
  9
$LUPREC
 70
     6
  9
$SKETCHINC
 40
1.0
  9
$FILLETRAD
 40
0.0
  9
$AUNITS
 70
     0
  9
$AUPREC
 70
     2
  9
$MENU
  1
.
  9
$ELEVATION
 40
0.0
  9
$PELEVATION
 40
0.0
  9
$THICKNESS
 40
0.0
  9
$LIMCHECK
 70
     0
  9
$BLIPMODE
 70
     0
  9
$CHAMFERA
 40
0.0
  9
$CHAMFERB
 40
0.0
  9
$SKPOLY
 70
     0
  9
$TDCREATE
 40
2461310.6983796302229166
  9
$TDUPDATE
 40
2461310.7270254627801478
  9
$TDINDWG
 40
0.0140972338
  9
$TDUSRTIMER
 40
0.0140972338
  9
$USRTIMER
 70
     1
  9
$ANGBASE
 50
0.0
  9
$ANGDIR
 70
     0
  9
$PDMODE
 70
     0
  9
$PDSIZE
 40
-1.0
  9
$PLINEWID
 40
0.0
  9
$COORDS
 70
     1
  9
$SPLFRAME
 70
     0
  9
$SPLINETYPE
 70
     6
  9
$SPLINESEGS
 70
     8
  9
$ATTDIA
 70
     1
  9
$ATTREQ
 70
     1
  9
$HANDLING
 70
     1
  9
$HANDSEED
  5
307
  9
$SURFTAB1
 70
     6
  9
$SURFTAB2
 70
     6
  9
$SURFTYPE
 70
     6
  9
$SURFU
 70
     6
  9
$SURFV
 70
     6
  9
$UCSNAME
  2

  9
$UCSORG
 10
2342.2528580032098944
 20
-788.8736293243099453
 30
0.0
  9
$UCSXDIR
 10
1.0
 20
0.0
 30
0.0
  9
$UCSYDIR
 10
0.0
 20
1.0
 30
0.0
  9
$PUCSNAME
  2

  9
$PUCSORG
 10
0.0
 20
0.0
 30
0.0
  9
$PUCSXDIR
 10
1.0
 20
0.0
 30
0.0
  9
$PUCSYDIR
 10
0.0
 20
1.0
 30
0.0
  9
$USERI1
 70
     0
  9
$USERI2
 70
     0
  9
$USERI3
 70
     0
  9
$USERI4
 70
     0
  9
$USERI5
 70
     0
  9
$USERR1
 40
0.0
  9
$USERR2
 40
0.0
  9
$USERR3
 40
0.0
  9
$USERR4
 40
0.0
  9
$USERR5
 40
0.0
  9
$WORLDVIEW
 70
     1
  9
$SHADEDGE
 70
     3
  9
$SHADEDIF
 70
    70
  9
$TILEMODE
 70
     1
  9
$MAXACTVP
 70
    64
  9
$PLIMCHECK
 70
     0
  9
$PEXTMIN
 10
1.0000000000000000E+20
 20
1.0000000000000000E+20
 30
1.0000000000000000E+20
  9
$PEXTMAX
 10
-1.0000000000000000E+20
 20
-1.0000000000000000E+20
 30
-1.0000000000000000E+20
  9
$PLIMMIN
 10
0.0
 20
0.0
  9
$PLIMMAX
 10
420.0
 20
297.0
  9
$UNITMODE
 70
     0
  9
$VISRETAIN
 70
     1
  9
$PLINEGEN
 70
     0
  9
$PSLTSCALE
 70
     1
  0
ENDSEC
  0
SECTION
  2
TABLES
  0
TABLE
  2
VPORT
 70
     1
  0
VPORT
  2
*ACTIVE
 70
     0
 10
0.0
 20
0.0
 11
1.0
 21
1.0
 12
-190.377749950770891
 22
156.4538346733689025
 13
0.0
 23
0.0
 14
10.0
 24
10.0
 15
10.0
 25
10.0
 16
0.0
 26
-12222.28446001031989
 36
12222.28446001031989
 17
392.9999694824218182
 27
-1429.841064453125
 37
0.0
 40
1792.7488975323299201
 41
2.640232108317214
 42
50.0
 43
0.0
 44
0.0
 50
0.0
 51
0.0
 71
     0
 72
   100
 73
     1
 74
     3
 75
     0
 76
     0
 77
     0
 78
     0
  0
ENDTAB
  0
TABLE
  2
LTYPE
 70
     7
  0
LTYPE
  2
CONTINUOUS
 70
     0
  3
Solid line
 72
    65
 73
     0
 40
0.0
  0
LTYPE
  2
HIDDEN
 70
     0
  3
Hidden __ __ __ __ __ __ __ __ __ __ __ __ __ __
 72
    65
 73
     2
 40
1.905
 49
1.27
 49
-0.635
  0
LTYPE
  2
PHANTOM
 70
     0
  3
Phantom ______  __  __  ______  __  __  ______
 72
    65
 73
     6
 40
12.6999999999999993
 49
6.3499999999999979
 49
-1.27
 49
1.27
 49
-1.27
 49
1.27
 49
-1.27
  0
LTYPE
  2
CENTER
 70
     0
  3
Center ____ _ ____ _ ____ _ ____ _ ____ _ ____
 72
    65
 73
     4
 40
10.1600000000000001
 49
6.3499999999999979
 49
-1.27
 49
1.27
 49
-1.27
  0
LTYPE
  2
CENTERX2
 70
     0
  3
Center (2x) ________  __  ________  __  _____
 72
    65
 73
     4
 40
20.3200000000000003
 49
12.6999999999999993
 49
-2.54
 49
2.54
 49
-2.54
  0
LTYPE
  2
DOT2
 70
     0
  3
Dot (.5x) ........................................
 72
    65
 73
     2
 40
0.635
 49
0.0
 49
-0.635
  0
ENDTAB
  0
TABLE
  2
LAYER
 70
     2
  0
LAYER
  2
0
 70
     0
 62
     7
  6
CONTINUOUS
  0
LAYER
  2
DEFPOINTS
 70
     0
 62
     7
  6
CONTINUOUS
  0
ENDTAB
  0
TABLE
  2
STYLE
 70
     2
  0
STYLE
  2
STANDARD
 70
     0
 40
0.0
 41
1.0
 50
0.0
 71
     0
 42
3.5
  3
txt
  4

  0
STYLE
  2
ANNOTATIVE
 70
     0
 40
0.0
 41
1.0
 50
0.0
 71
     0
 42
0.2
  3
txt
  4

  0
ENDTAB
  0
TABLE
  2
VIEW
 70
     0
  0
ENDTAB
  0
TABLE
  2
UCS
 70
     0
  0
ENDTAB
  0
TABLE
  2
APPID
 70
     7
  0
APPID
  2
ACAD
 70
     0
  0
APPID
  2
ACADANNOTATIVE
 70
     0
  0
APPID
  2
ACAD_DSTYLE_DIMJAG
 70
     0
  0
APPID
  2
ACAD_DSTYLE_DIMTALN
 70
     0
  0
APPID
  2
ACAD_EXEMPT_FROM_CAD_STANDARDS
 70
     0
  0
APPID
  2
ACAD_NAV_VCDISPLAY
 70
     0
  0
APPID
  2
ACAD_MLEADERVER
 70
     0
  0
ENDTAB
  0
TABLE
  2
DIMSTYLE
 70
     3
  0
DIMSTYLE
  2
STANDARD
 70
     0
  3

  4

  5

  6

  7

 40
1.0
 41
0.18
 42
0.0625
 43
0.38
 44
0.18
 45
0.0
 46
0.0
 47
0.0
 48
0.0
140
0.18
141
0.09
142
0.0
143
25.3999999999999986
144
1.0
145
0.0
146
1.0
147
0.09
 71
     0
 72
     0
 73
     1
 74
     1
 75
     0
 76
     0
 77
     0
 78
     0
170
     0
171
     2
172
     0
173
     0
174
     0
175
     0
176
     0
177
     0
178
     0
  0
DIMSTYLE
  2
ANNOTATIVE
 70
     0
  3

  4

  5

  6

  7

 40
1.0
 41
0.18
 42
0.0625
 43
0.38
 44
0.18
 45
0.0
 46
0.0
 47
0.0
 48
0.0
140
0.18
141
0.09
142
0.0
143
25.3999999999999986
144
1.0
145
0.0
146
1.0
147
0.09
 71
     0
 72
     0
 73
     1
 74
     1
 75
     0
 76
     0
 77
     0
 78
     0
170
     0
171
     2
172
     0
173
     0
174
     0
175
     0
176
     0
177
     0
178
     0
  0
DIMSTYLE
  2
ISO-25
 70
     0
  3

  4

  5

  6

  7

 40
1.0
 41
2.5
 42
0.625
 43
3.75
 44
1.25
 45
0.0
 46
0.0
 47
0.0
 48
0.0
140
2.5
141
2.5
142
0.0
143
0.0393700787
144
1.0
145
0.0
146
1.0
147
0.625
 71
     0
 72
     0
 73
     0
 74
     0
 75
     0
 76
     0
 77
     1
 78
     8
170
     0
171
     3
172
     1
173
     0
174
     0
175
     0
176
     0
177
     0
178
     0
  0
ENDTAB
  0
ENDSEC
  0
SECTION
  2
BLOCKS
  0
BLOCK
  8
0
  2
$MODEL_SPACE
 70
     0
 10
0.0
 20
0.0
 30
0.0
  3
$MODEL_SPACE
  1

  0
ENDBLK
  5
271
  8
0
  0
BLOCK
 67
     1
  8
0
  2
$PAPER_SPACE
 70
     0
 10
0.0
 20
0.0
 30
0.0
  3
$PAPER_SPACE
  1

  0
ENDBLK
  5
26D
 67
     1
  8
0
  0
BLOCK
  8
0
  2
*D2
 70
     1
 10
0.0
 20
0.0
 30
0.0
  3
*D2
  1

  0
LINE
  5
C4
  8
0
 62
     0
 10
-833.9973674645998472
 20
-1014.0
 30
0.0
 11
-833.9973674645998472
 21
-1194.4712718755899914
 31
0.0
  0
LINE
  5
C5
  8
0
 62
     0
 10
-583.9973674645999608
 20
-1014.0
 30
0.0
 11
-583.9973674645999608
 21
-1194.4712718755899914
 31
0.0
  0
LINE
  5
C6
  8
0
 62
     0
 10
-784.4673674646002155
 20
-1179.4712718755890819
 30
0.0
 11
-633.5273674645999336
 21
-1179.4712718755890819
 31
0.0
  0
SOLID
  5
C7
  8
0
 62
     0
 10
-784.4673674646002155
 20
-1171.2162718755889728
 30
0.0
 11
-784.4673674646002155
 21
-1187.7262718755901005
 31
0.0
 12
-833.9973674645998472
 22
-1179.4712718755890819
 32
0.0
 13
-833.9973674645998472
 23
-1179.4712718755890819
 33
0.0
  0
SOLID
  5
C8
  8
0
 62
     0
 10
-633.5273674645999336
 20
-1171.2162718755889728
 30
0.0
 11
-633.5273674645999336
 21
-1187.7262718755901005
 31
0.0
 12
-583.9973674645999608
 22
-1179.4712718755890819
 32
0.0
 13
-583.9973674645999608
 23
-1179.4712718755890819
 33
0.0
  0
INSERT
  5
C9
  8
0
 62
     3
  2
*U3
 10
0.0
 20
0.0
 30
0.0
  0
POINT
  5
CA
  8
DEFPOINTS
 62
     0
 10
-833.9973674645998472
 20
-1014.0
 30
0.0
  0
POINT
  5
CB
  8
DEFPOINTS
 62
     0
 10
-583.9973674645999608
 20
-1014.0
 30
0.0
  0
POINT
  5
CC
  8
DEFPOINTS
 62
     0
 10
-583.9973674645999608
 20
-1179.4712718755890819
 30
0.0
  0
ENDBLK
  5
C3
  8
0
  0
BLOCK
  8
0
 62
     3
  2
*U3
 70
     1
 10
0.0
 20
0.0
 30
0.0
  3
*U3
  1

  0
TEXT
  5
1F7
  8
0
 62
     0
 10
-774.6223674645997335
 20
-1156.6112718755900914
 30
0.0
 40
52.5
  1
250
  0
ENDBLK
  5
1F9
  8
0
 62
     3
  0
BLOCK
  8
0
  2
*D4
 70
     1
 10
0.0
 20
0.0
 30
0.0
  3
*D4
  1

  0
LINE
  5
D1
  8
0
 62
     0
 10
583.9973674645999608
 20
-1014.0
 30
0.0
 11
583.9973674645999608
 21
-1335.8751998201230435
 31
0.0
  0
LINE
  5
D2
  8
0
 62
     0
 10
1619.9973674646000745
 20
-1014.0
 30
0.0
 11
1619.9973674646000745
 21
-1335.8751998201230435
 31
0.0
  0
LINE
  5
D3
  8
0
 62
     0
 10
633.5273674645999336
 20
-1320.8751998201230435
 30
0.0
 11
1570.4673674646001018
 21
-1320.8751998201230435
 31
0.0
  0
SOLID
  5
D4
  8
0
 62
     0
 10
633.5273674645999336
 20
-1312.6201998201229344
 30
0.0
 11
633.5273674645999336
 21
-1329.1301998201229253
 31
0.0
 12
583.9973674645999608
 22
-1320.8751998201230435
 32
0.0
 13
583.9973674645999608
 23
-1320.8751998201230435
 33
0.0
  0
SOLID
  5
D5
  8
0
 62
     0
 10
1570.4673674646001018
 20
-1312.6201998201229344
 30
0.0
 11
1570.4673674646001018
 21
-1329.1301998201229253
 31
0.0
 12
1619.9973674646000745
 22
-1320.8751998201230435
 32
0.0
 13
1619.9973674646000745
 23
-1320.8751998201230435
 33
0.0
  0
INSERT
  5
D6
  8
0
 62
     3
  2
*U5
 10
0.0
 20
0.0
 30
0.0
  0
POINT
  5
D7
  8
DEFPOINTS
 62
     0
 10
583.9973674645999608
 20
-1014.0
 30
0.0
  0
POINT
  5
D8
  8
DEFPOINTS
 62
     0
 10
1619.9973674646000745
 20
-1014.0
 30
0.0
  0
POINT
  5
D9
  8
DEFPOINTS
 62
     0
 10
1619.9973674646000745
 20
-1320.8751998201230435
 30
0.0
  0
ENDBLK
  5
D0
  8
0
  0
BLOCK
  8
0
 62
     3
  2
*U5
 70
     1
 10
0.0
 20
0.0
 30
0.0
  3
*U5
  1

  0
TEXT
  5
1FB
  8
0
 62
     0
 10
1018.8723674645999608
 20
-1298.0151998201229162
 30
0.0
 40
52.5
  1
1036
  0
ENDBLK
  5
1FD
  8
0
 62
     3
  0
BLOCK
  8
0
 62
     3
  2
*U6
 70
     1
 10
0.0
 20
0.0
 30
0.0
  3
*U6
  1

  0
TEXT
  5
300
  8
0
 62
     3
 10
-318.9807826860305795
 20
-868.5879276051755369
 30
0.0
 40
3.5
  1
green wali line ko 3 mm offset liya he ,
  0
TEXT
  5
301
  8
0
 62
     3
 10
-318.9807826860305795
 20
-874.4212609385089081
 30
0.0
 40
3.5
  1
isi tarah baaki sab bhi le lena
  0
TEXT
  5
302
  8
0
 62
     3
 10
-318.9807826860305795
 20
-886.0879276051756506
 30
0.0
 40
3.5
  1
and
  0
TEXT
  5
303
  8
0
 62
     3
 10
-318.9807826860305795
 20
-897.7545942718422793
 30
0.0
 40
3.5
  1
end pe 50  mm offset liya he incase unko plus mei item chaiyetoh ,
  0
TEXT
  5
304
  8
0
 62
     3
 10
-318.9807826860305795
 20
-903.5879276051756506
 30
0.0
 40
3.5
  1
wasie 50mm ki jagah less bhi chalega
  0
ENDBLK
  5
306
  8
0
 62
     3
  0
ENDSEC
  0
SECTION
  2
ENTITIES
  0
DIMENSION
  5
BF
  8
0
  2
*D2
 10
-583.9973674645999608
 20
-1179.4712718755890819
 30
0.0
 11
-708.9973674645999608
 21
-1130.3612718755900914
 31
0.0
 13
-833.9973674645998472
 23
-1014.0
 33
0.0
 14
-583.9973674645999608
 24
-1014.0
 34
0.0
1001
ACAD
1000
DSTYLE
1002
{
1070
    40
1040
15.0
1070
    41
1040
3.302
1070
    42
1040
0.0
1070
    44
1040
1.0
1070
    73
1070
     1
1070
    74
1070
     1
1070
    78
1070
     1
1070
   140
1040
3.5
1070
   147
1040
1.524
1070
   179
1070
     2
1070
   271
1070
     0
1070
   272
1070
     0
1070
   284
1070
     1
1002
}
  0
DIMENSION
  5
CD
  8
0
  2
*D4
 10
1619.9973674646000745
 20
-1320.8751998201230435
 30
0.0
 11
1101.9973674645989377
 21
-1271.7651998201229162
 31
0.0
 13
583.9973674645999608
 23
-1014.0
 33
0.0
 14
1619.9973674646000745
 24
-1014.0
 34
0.0
1001
ACAD
1000
DSTYLE
1002
{
1070
    40
1040
15.0
1070
    41
1040
3.302
1070
    42
1040
0.0
1070
    44
1040
1.0
1070
    73
1070
     1
1070
    74
1070
     1
1070
    78
1070
     1
1070
   140
1040
3.5
1070
   147
1040
1.524
1070
   179
1070
     2
1070
   271
1070
     0
1070
   272
1070
     0
1070
   284
1070
     1
1002
}
  0
POLYLINE
  5
28F
  8
0
  6
CONTINUOUS
 62
     3
 66
     1
 10
0.0
 20
0.0
 30
0.0
 70
     1
  0
VERTEX
  5
2E5
  8
0
  6
CONTINUOUS
 62
     3
 10
583.3246970469283497
 20
-711.0
 30
0.0
  0
VERTEX
  5
2E6
  8
0
  6
CONTINUOUS
 62
     3
 10
656.1187439002284236
 20
-911.0
 30
0.0
  0
VERTEX
  5
2E7
  8
0
  6
CONTINUOUS
 62
     3
 10
1669.9973674646000745
 20
-911.0
 30
0.0
  0
VERTEX
  5
2E8
  8
0
  6
CONTINUOUS
 62
     3
 10
1669.9973674646000745
 20
-1011.0
 30
0.0
  0
VERTEX
  5
2E9
  8
0
  6
CONTINUOUS
 62
     3
 10
586.0979900792113995
 20
-1011.0
 30
0.0
  0
VERTEX
  5
2EA
  8
0
  6
CONTINUOUS
 62
     3
 10
513.3039432260296735
 20
-811.0
 30
0.0
  0
VERTEX
  5
2EB
  8
0
  6
CONTINUOUS
 62
     3
 10
-513.3039432260296735
 20
-811.0
 30
0.0
  0
VERTEX
  5
2EC
  8
0
  6
CONTINUOUS
 62
     3
 10
-586.0979900792115131
 20
-1011.0
 30
0.0
  0
VERTEX
  5
2ED
  8
0
  6
CONTINUOUS
 62
     3
 10
-883.9973674646000745
 20
-1011.0
 30
0.0
  0
VERTEX
  5
2EE
  8
0
  6
CONTINUOUS
 62
     3
 10
-883.9973674646000745
 20
-911.0
 30
0.0
  0
VERTEX
  5
2EF
  8
0
  6
CONTINUOUS
 62
     3
 10
-656.1187439002280826
 20
-911.0
 30
0.0
  0
VERTEX
  5
2F0
  8
0
  6
CONTINUOUS
 62
     3
 10
-583.3246970469286907
 20
-711.0
 30
0.0
  0
SEQEND
  5
2F1
  8
0
  6
CONTINUOUS
 62
     3
  0
POLYLINE
  5
290
  8
0
  6
CONTINUOUS
 62
     7
 66
     1
 10
0.0
 20
0.0
 30
0.0
 70
     1
  0
VERTEX
  5
2F2
  8
0
  6
CONTINUOUS
 62
     7
 10
-833.9973674645998472
 20
-914.0
 30
0.0
  0
VERTEX
  5
2F3
  8
0
  6
CONTINUOUS
 62
     7
 10
-833.9973674645998472
 20
-1014.0
 30
0.0
  0
VERTEX
  5
2F4
  8
0
  6
CONTINUOUS
 62
     7
 10
-583.9973674645816573
 20
-1014.0
 30
0.0
  0
VERTEX
  5
2F5
  8
0
  6
CONTINUOUS
 62
     7
 10
-511.2033206113998745
 20
-814.0
 30
0.0
  0
VERTEX
  5
2F6
  8
0
  6
CONTINUOUS
 62
     7
 10
511.2033206113998745
 20
-814.0
 30
0.0
  0
VERTEX
  5
2F7
  8
0
  6
CONTINUOUS
 62
     7
 10
583.9973674645999608
 20
-1014.0
 30
0.0
  0
VERTEX
  5
2F8
  8
0
  6
CONTINUOUS
 62
     7
 10
1619.9973674646000745
 20
-1014.0
 30
0.0
  0
VERTEX
  5
2F9
  8
0
  6
CONTINUOUS
 62
     7
 10
1619.9973674646000745
 20
-914.0
 30
0.0
  0
VERTEX
  5
2FA
  8
0
  6
CONTINUOUS
 62
     7
 10
654.018121285599932
 20
-914.0
 30
0.0
  0
VERTEX
  5
2FB
  8
0
  6
CONTINUOUS
 62
     7
 10
581.2240744322999717
 20
-714.0
 30
0.0
  0
VERTEX
  5
2FC
  8
0
  6
CONTINUOUS
 62
     7
 10
-581.2240744322999717
 20
-714.0
 30
0.0
  0
VERTEX
  5
2FD
  8
0
  6
CONTINUOUS
 62
     7
 10
-654.018121285599932
 20
-914.0
 30
0.0
  0
SEQEND
  5
2FE
  8
0
  6
CONTINUOUS
 62
     7
  0
INSERT
  5
292
  8
0
 62
     3
  2
*U6
 10
0.0
 20
0.0
 30
0.0
  0
ENDSEC
  0
EOF
